<svg id="Capa_1" enable-background="new 0 0 512.004 512.004" height="512" viewBox="0 0 512.004 512.004" width="512" xmlns="http://www.w3.org/2000/svg"><g><path d="m79.004 272.191c-23.901 0-43.346-19.445-43.346-43.347s19.445-43.346 43.346-43.346 43.346 19.444 43.346 43.346-19.445 43.347-43.346 43.347z" fill="#fdbbab"/><path d="m230.482 258.552v59c-19.02-.01-16.75-.05-17.02-.18-117.37-54.41-113.26-50.72-113.16-53.28 1.07-29.12 31.5-49.78 59.82-36.88 17.35 8.56 65.36 31.34 65.36 31.34z" fill="#fc6581"/><path d="m497.004 315.449c-.104 0-249.882.087-282.735.099l-193.026-88.27c-7.536-3.448-16.435-.131-19.88 7.403s-.13 16.435 7.403 19.88l171.858 78.589v128.351h-44.67c-8.28 0-15 6.71-15 15 0 8.28 6.72 15 15 15h179.05c8.28 0 15-6.72 15-15 0-8.29-6.72-15-15-15h-43.72v-115.82c41.83-.076 110.966-.232 225.723-.232 8.284-.002 14.998-6.719 14.996-15.002-.001-8.283-6.716-14.998-14.999-14.998z" fill="#e6faff"/><path d="m483.104 300.551v14.91c0 1.1-.89 2-2 2-172.55.04-233.84.11-255.62.08v-58.99h215.62c23.16 0 42 18.84 42 42z" fill="#f4425c"/><path d="m497.004 315.451c-56.563.018-218.373.068-271.52.1v175.95h89.52c8.28 0 15-6.72 15-15 0-8.29-6.72-15-15-15h-43.72v-115.82c41.83-.07 110.97-.23 225.72-.23 8.29 0 15-6.72 15-15 0-8.29-6.72-15-15-15z" fill="#ccf8ff"/><path d="m261.874 139.501c-29.059 28.974-78.719 14.279-87.75-24.43l60.28-64.06c39.867 6.355 58.015 58.009 27.47 88.49z" fill="#ffa58d"/><path d="m214.351 25.398 24.185 26.53c-.136.17-63.124 67.09-63.226 67.198l-44.186-24.224c-8.883-4.76-10.589-16.762-3.5-23.83l66.927-47.777c6.18-4.413 14.684-3.51 19.8 2.103z" fill="#ccf8ff"/><path d="m378.164 384.591-7.45 97.67c-.4 5.21-4.75 9.24-9.98 9.24h-41.46c-5.23 0-9.58-4.03-9.98-9.24l-7.46-97.78z" fill="#ffa58d"/><path d="m378.164 384.591c-8.671 113.675-7.298 95.683-7.45 97.67-.4 5.21-4.75 9.24-9.98 9.24h-20.73v-106.96z" fill="#f59280"/><path d="m269.575 389.434c-9.42-.014-16.496-8.606-14.704-17.853l30.073-155.199c2.151-9.176-8.435-15.891-15.828-10.212l-54.517 41.882c-7.904 6.072-18.934 6.602-27.449.966-11.456-7.581-14.054-23.345-5.631-34.201l90.17-116.238c1.526-1.967 4.039-2.385 6.014-1.488 69.018 31.303 113.197 95.804 131.519 169.13 8.408 33.65 13.323 82.146 15.448 107.159.745 8.764-6.174 16.279-14.969 16.266z" fill="#22e0e0"/><path d="m409.704 389.641c-.104 0-69.54-.1-69.7-.1v-249.42c34.02 33.63 57.19 77.96 69.22 126.1 8.41 33.65 13.32 82.14 15.45 107.16.74 8.76-6.18 16.28-14.97 16.26z" fill="#22c7e0"/></g></svg>