<svg id="Capa_1" enable-background="new 0 0 512.001 512.001" height="512" viewBox="0 0 512.001 512.001" width="512" xmlns="http://www.w3.org/2000/svg"><g><path d="m293.912 211.668c-22.121 0-40.119-17.996-40.119-40.118s17.997-40.118 40.119-40.118 40.118 17.996 40.118 40.118-17.997 40.118-40.118 40.118z" fill="#ffa58d"/><path d="m28.203 509.982c-15.121-.269-26.646-13.628-24.695-28.625l27.962-214.937 8.963-2.399 53.294 69.86c.94 1.232 1.259 2.86.854 4.356l-41.452 153.022c-3.038 11.214-13.309 18.93-24.926 18.723z" fill="#84eef9"/><path d="m144.775 511.999c-13.856.09-25.36-10.678-26.184-24.509l-6.572-110.277c-.121-2-.825-3.896-2.038-5.486l-77.523-101.621c-.96-1.258-1.271-2.916-.832-4.433l46.504-160.927 9.537-.312 41.868 115.869c.286.795.368 1.658.235 2.492l-6.251 39.301c-.395 2.47.145 4.986 1.52 7.081l56.1 85.422c.616.938.902 2.07.804 3.189l-11.377 130.416c-1.169 13.399-12.342 23.708-25.791 23.795z" fill="#22e0e0"/><path d="m170.568 488.2c-1.17 13.4-12.34 23.71-25.79 23.8-13.86.09-25.36-10.68-26.19-24.51l-6.09-102.22v-212.13c17.301 48.514 17.822 47.763 17.25 49.78-5.318 38.627-8.389 40.621-4.71 46.26l56.1 85.42c1.826 2.768.996-3.511-10.57 133.6z" fill="#22c7e0"/><path d="m508.703 372.198c0 8.307-6.742 15.048-15.048 15.048h-166.587v38.133c-9.535-3.881-20.406-3.92-30.097.04v-133.48h30.097v65.21h166.587c8.307 0 15.048 6.742 15.048 15.049z" fill="#ccf8ff"/><path d="m508.708 372.2c0 8.3-6.75 15.05-15.05 15.05h-90.82v-30.1h90.82c8.3 0 15.05 6.74 15.05 15.05z" fill="#b0f2ff"/><circle cx="312.07" cy="462.488" fill="#004071" r="45.046"/><circle cx="312.07" cy="462.488" fill="#ccf8ff" r="14.949"/><path d="m508.703 138.444h-146.472c-19.392 0-35.113 15.721-35.113 35.113 0 19.392 15.721 35.113 35.113 35.113h146.472z" fill="#fc6581"/><path d="m402.838 138.44h105.87v70.23h-105.87z" fill="#f4425c"/><path d="m201.573 254.266c-3.77 0-7.567-.856-10.981-2.477l-88.819-42.15c-1.352-.641-2.339-1.84-2.709-3.29l-21.619-84.651c-.027-.106-.05-.21-.071-.314-2.198-11.529 1.414-23.414 9.664-31.781 6.676-6.771 15.956-10.654 25.46-10.654 2.07 0 4.157.183 6.204.543 14.788 2.604 26.497 14.282 29.137 29.059l9.786 56.392c.471 2.701 2.048 5.118 4.326 6.635l53.817 35.828c9.444 6.288 13.588 17.806 10.313 28.662-2.154 7.142-7.303 12.971-14.125 15.995-3.296 1.462-6.788 2.203-10.383 2.203z" fill="#22e0e0"/><path d="m190.592 251.789-88.819-42.15c-1.352-.641-2.339-1.84-2.709-3.29-22.694-88.872-21.616-84.588-21.69-84.964-4.686-24.576 16.738-46.213 41.328-41.893 14.788 2.604 26.497 14.282 29.137 29.059l9.786 56.392c.471 2.701 2.048 5.118 4.326 6.635l53.817 35.828c9.444 6.288 13.588 17.806 10.313 28.662-4.534 15.028-21.4 22.409-35.489 15.721z" fill="#22e0e0"/><path d="m226.078 236.07c-4.53 15.03-21.4 22.41-35.49 15.72-1.963-.931 14.392 6.83-78.09-37.06v-135.79c17.86.088 32.37 12.986 35.34 29.61l9.79 56.39c.47 2.7 2.04 5.12 4.32 6.64l53.82 35.83c9.44 6.28 13.59 17.8 10.31 28.66z" fill="#22c7e0"/><path d="m115.463 94.503c-25.918-4.565-43.196-29.233-38.62-55.151 4.025-22.803 23.743-39.352 46.886-39.352 29.675 0 52.042 26.756 46.9 55.877-4.579 25.944-29.22 43.191-55.166 38.626z" fill="#fbcdbe"/><path d="m170.628 55.88c-4.09 23.16-24.17 39.39-46.89 39.35v-95.23c29.68.01 52.03 26.76 46.89 55.88z" fill="#fdbbab"/><path d="m508.703 206.664h-256.877c-24.933 0-45.145 20.212-45.145 45.145v30.097c0 8.311 6.737 15.048 15.048 15.048h271.926c8.311 0 15.048-6.737 15.048-15.048z" fill="#005a96"/><path d="m508.708 206.66v75.25c0 8.31-6.74 15.05-15.05 15.05h-90.82v-90.3z" fill="#004071"/></g></svg>