<svg id="Capa_1" enable-background="new 0 0 512 512" height="512" viewBox="0 0 512 512" width="512" xmlns="http://www.w3.org/2000/svg"><g><g><path d="m285.11 416v90l5 5h40c8.284 0 15-6.716 15-15v-85h-55c-1.953 1.953-3.047 3.047-5 5z" fill="#fdbbab"/><path d="m235.11 411v85c0 8.28 6.71 15 15 15h40v-100z" fill="#fbcdbe"/></g><path d="m492.99 230.044c-8.284 0-15 6.716-15 15v251.956c0 8.284 6.716 15 15 15s15-6.716 15-15v-251.956c0-8.284-6.716-15-15-15z" fill="#004071"/><path d="m82.476 99.847c-27.506 0-49.884-22.396-49.884-49.924 0-27.527 22.377-49.923 49.884-49.923s49.884 22.396 49.884 49.923c0 27.528-22.378 49.924-49.884 49.924z" fill="#d58577"/><path d="m132.36 49.92c0 27.53-22.38 49.93-49.88 49.93v-99.85c27.5 0 49.88 22.4 49.88 49.92z" fill="#c56d59"/><path d="m370.16 80.19v325.81c0 5.523-4.477 10-10 10h-143.26c-5.5 0-10-4.5-10-10v-172.03c2.937-84.977 74.126-153.97 161.33-153.97.1.005.904-.019 1.93.19z" fill="#fc6581"/><path d="m370.16 80.19v325.81c0 5.52-4.48 10-10 10h-70.05v-315.97c23.15-12.75 49.79-20.03 78.12-20.03.1.01.9-.02 1.93.19z" fill="#f4425c"/><path d="m495.83 257.39c-5.409 12.573-19.348 19.051-32.59 14.67-39.687-13.287-60.981-20.592-72.405-24.606-8.436-2.964-15.563-8.778-20.164-16.445-9.126-15.207-30.243-50.396-79.091-131.799 38.218-20.568 71.199-18.514 76.79-19.21 66.474 118.948 60.999 110.644 64.52 112.77l52.28 31.48c11.29 6.8 15.87 21.04 10.66 33.14z" fill="#dd124c"/><circle cx="402.44" cy="60" fill="#fdbbab" r="55"/><path d="m117.61 416v81c0 8.28-6.72 15-15 15h-40.19c-8.28 0-15-6.71-15-14.99l-.07-81.01z" fill="#d58577"/><path d="m117.61 416v81c0 8.28-6.72 15-15 15h-20.13v-96z" fill="#c56d59"/><path d="" fill="none"/><path d="m151.411 421h-130.411c-9.022 0-16.002-7.906-14.884-16.859l34.574-276.871c2.49-19.92 19.41-34.88 39.49-34.91h.04c19.46 0 36.08 14.05 39.31 33.25l46.674 277.906c1.536 9.148-5.517 17.484-14.793 17.484z" fill="#84eef9"/><path d="m151.41 421h-68.93v-328.58c18.47 1.04 33.95 14.74 37.05 33.19l46.67 277.91c1.54 9.14-5.51 17.48-14.79 17.48z" fill="#22e0e0"/><path d="m200.669 239.048-117.127-22.276c-1.733-.329-3.179-1.566-3.773-3.229l-27.102-75.781c-7.873-22.018 8.447-45.253 31.835-45.31 15.002 0 28.371 9.995 32.592 24.305l11.861 40.212c.983 3.331 3.68 5.951 7.039 6.838l77.115 20.372c13.506 3.569 22.249 16.251 20.787 30.156-1.716 16.335-17.05 27.787-33.227 24.713z" fill="#22e0e0"/><path d="m233.9 214.33c-1.72 16.34-17.05 27.79-33.23 24.72l-117.13-22.28c-.37-.07-.72-.18-1.06-.34v-123.92c.67-.04 1.34-.06 2.02-.06 15 0 28.37 10 32.59 24.31l11.87 40.21c.98 3.33 3.68 5.95 7.03 6.84l77.12 20.37c13.51 3.57 22.25 16.25 20.79 30.15z" fill="#22c7e0"/></g></svg>